ENG/SPANISH/PORTUGESE

This Christmas, find out who's been naughty and who's been nice in an all-new Disney holiday celebration. Mickey, Donald, Goofy and their pals star in five festive tales about the importance of opening your heart to the true meaning of Christmas.

Watch the hilarious antics of stubborn old Donald as he tries in vain to resist the joy of the season, and laugh along with Mickey and Pluto as they learn a great lesson about the power of friendship.

The whole family will celebrate the wonder of the holidays with these magical Christmas stories featuring your favourite Disney characters!

Format : MPEG-4
Format profile : Base Media / Version 2
Codec ID : mp42
File size : 698 MiB
Duration : 1h 4mn
Overall bit rate : 1 512 Kbps
Encoded date : UTC 2009-10-28 04:54:39
Tagged date : UTC 2009-10-28 07:41:40
Writing application : HandBrake 0.9.3 2008112300

Video
ID : 1
Format : AVC
Format/Info : Advanced Video Codec
Format profile : Main@L4.0
Format settings, CABAC : Yes
Format settings, ReFrames : 3 frames
Codec ID : avc1
Codec ID/Info : Advanced Video Coding
Duration : 1h 4mn
Bit rate mode : Variable
Bit rate : 1 026 Kbps
Width : 702 pixels
Height : 576 pixels
Display aspect ratio : 16:9
Frame rate mode : Variable
Frame rate : 25.000 fps
Minimum frame rate : 12.500 fps
Maximum frame rate : 86.486 fps
Resolution : 24 bits
Colorimetry : 4:2:0
Scan type : Progressive
Bits/(Pixel*Frame) : 0.101
Stream size : 474 MiB (68%)
Writing library : x264 core 65
Encoding settings : cabac=1 / ref=2 / deblock=1:-2:-1 / analyse=0x1:0x131 / me=umh / subme=9 / psy_rd=1.0:0.0 / mixed_ref=1 / me_range=16 / chroma_me=1 / trellis=0 / 8x8dct=0 / cqm=0 / deadzone=21,11 / chroma_qp_offset=-2 / threads=3 / nr=0 / decimate=1 / mbaff=0 / bframes=3 / b_pyramid=1 / b_adapt=1 / b_bias=0 / direct=3 / wpredb=1 / keyint=250 / keyint_min=25 / scenecut=40(pre) / rc=2pass / bitrate=1026 / ratetol=1.0 / qcomp=0.60 / qpmin=10 / qpmax=51 / qpstep=4 / cplxblur=20.0 / qblur=0.5 / ip_ratio=1.40 / pb_ratio=1.30 / aq=1:1.00
Encoded date : UTC 2009-10-28 04:54:39
Tagged date : UTC 2009-10-28 07:41:40

Audio #1
ID : 2
Format : AAC
Format/Info : Advanced Audio Codec
Format version : Version 4
Format profile : LC
Format settings, SBR : No
Codec ID : 40
Duration : 1h 4mn
Bit rate mode : Variable
Bit rate : 160 Kbps
Maximum bit rate : 246 Kbps
Channel(s) : 2 channels
Channel positions : L R
Sampling rate : 48.0 KHz
Resolution : 16 bits
Stream size : 73.6 MiB (11%)
Language : English
Encoded date : UTC 2009-10-28 04:54:39
Tagged date : UTC 2009-10-28 07:41:37

Audio #2
ID : 3
Format : AAC
Format/Info : Advanced Audio Codec
Format version : Version 4
Format profile : LC
Format settings, SBR : No
Codec ID : 40
Duration : 1h 4mn
Bit rate mode : Variable
Bit rate : 160 Kbps
Maximum bit rate : 214 Kbps
Channel(s) : 2 channels
Channel positions : L R
Sampling rate : 48.0 KHz
Resolution : 16 bits
Stream size : 73.7 MiB (11%)
Language : Spanish
Encoded date : UTC 2009-10-28 04:54:39
Tagged date : UTC 2009-10-28 07:41:37

Audio #3
ID : 4
Format : AAC
Format/Info : Advanced Audio Codec
Format version : Version 4
Format profile : LC
Format settings, SBR : No
Codec ID : 40
Duration : 1h 4mn
Bit rate mode : Variable
Bit rate : 160 Kbps
Maximum bit rate : 213 Kbps
Channel(s) : 2 channels
Channel positions : L R
Sampling rate : 48.0 KHz
Resolution : 16 bits
Stream size : 73.7 MiB (11%)
Language : Portuguese
Encoded date : UTC 2009-10-28 04:54:39
Tagged date : UTC 2009-10-28 07:41:37 